<svg width="69" height="69" viewBox="0 0 69 69" fill="none" xmlns="http://www.w3.org/2000/svg">
<path fill-rule="evenodd" clip-rule="evenodd" d="M34.5 25.1504C29.3408 25.1504 25.1584 29.3328 25.1584 34.492C25.1584 39.6512 29.3408 43.8336 34.5 43.8336C39.6592 43.8336 43.8416 39.6512 43.8416 34.492C43.8416 29.3328 39.6592 25.1504 34.5 25.1504ZM20.8469 34.492C20.8469 26.9516 26.9596 20.8389 34.5 20.8389C42.0404 20.8389 48.1531 26.9516 48.1531 34.492C48.1531 42.0324 42.0404 48.1451 34.5 48.1451C26.9596 48.1451 20.8469 42.0324 20.8469 34.492Z" fill="#E52A30"/>
<path fill-rule="evenodd" clip-rule="evenodd" d="M23.0026 10.7788C16.256 10.7788 10.7867 16.2481 10.7867 22.9947V45.9895C10.7867 52.7361 16.256 58.2054 23.0026 58.2054H45.9974C52.744 58.2054 58.2133 52.7361 58.2133 45.9895V22.9947C58.2133 16.2481 52.744 10.7788 45.9974 10.7788H23.0026ZM6.47519 22.9947C6.47519 13.8669 13.8748 6.46729 23.0026 6.46729H45.9974C55.1252 6.46729 62.5248 13.8669 62.5248 22.9947V45.9895C62.5248 55.1173 55.1252 62.5169 45.9974 62.5169H23.0026C13.8748 62.5169 6.47519 55.1173 6.47519 45.9895V22.9947Z" fill="#E52A30"/>
<path fill-rule="evenodd" clip-rule="evenodd" d="M51.7797 17.0776C52.6647 17.874 52.7364 19.2371 51.94 20.1221L51.9112 20.154C51.1148 21.039 49.7517 21.1107 48.8668 20.3142C47.9818 19.5178 47.9101 18.1547 48.7065 17.2698L48.7353 17.2378C49.5317 16.3529 50.8948 16.2811 51.7797 17.0776Z" fill="#E52A30"/>
</svg>
