<svg width="925" height="664" viewBox="0 0 925 664" fill="none" xmlns="http://www.w3.org/2000/svg">
<path d="M446.6 344.81C447.128 343.356 447.763 341.927 448.5 340.533C449.9 337.79 449.3 335.934 446.9 333.19C442.551 328.067 439.054 322.505 436.5 316.648C435.4 314.227 437.2 310.999 437.7 307.529C435.2 307.852 433.5 308.013 431.1 308.336V298.249C431.1 297.039 431 294.86 430.5 294.779C422.2 293.488 424.2 287.597 420.8 283.078C419.9 287.759 419.1 292.358 418.1 297.926C415.5 296.474 414.3 295.828 412.9 295.102C405.4 303.575 399.7 314.146 382.6 311.16C382.9 310.111 383.3 309.062 383.6 308.013C383.1 308.417 382.6 308.74 382 309.143C378.4 306.803 371.8 304.382 372 302.284C372.3 298.491 376.7 295.021 379.7 291.067C375.7 286.468 375.7 286.468 370.8 288.485C373.3 286.952 375.8 285.419 378.8 283.643C377.7 283.159 376.7 282.756 376.3 282.594C377.231 280.887 378.033 279.135 378.7 277.349C377.672 276.905 376.602 276.527 375.5 276.219C374.3 273.96 372.9 271.378 371.2 268.15C371.4 267.988 372.4 267.02 373.7 265.729C371.9 265.487 370.8 265.326 368.6 265.003L386.1 262.178C386.4 263.954 386.7 265.729 387.1 267.746C390.5 265.245 392.6 263.712 394.6 262.259C394 260.565 393.5 258.709 392.8 256.772C390.5 258.628 388.2 260.403 385.9 262.259C382.3 261.856 378.6 261.452 375 261.21C373.4 261.049 371.7 261.21 370 260.08C372.2 259.354 374.3 258.628 377.7 257.498C374.5 255.642 372.3 254.351 369.9 252.898C373.6 249.429 375.6 245.475 383 249.267L379.3 243.296C381.7 244.264 382.9 244.668 384 245.152C385.4 243.134 386.7 241.117 388.2 238.938C390.5 239.664 392.9 240.471 395.4 241.278C395.8 241.036 396.1 240.714 396.5 240.471L390.2 233.693H399.3C402.1 236.437 405.1 239.342 408.1 242.247C408.6 241.924 409.2 241.682 409.7 241.359C407.5 238.535 405.3 235.791 402.7 232.563C406.5 231.676 409.6 230.465 406.4 228.044C408.7 227.318 411.3 226.592 414.1 225.704C415.8 228.286 421.5 229.093 424.5 225.946C427.5 222.799 429 219.087 431.2 215.537C430.3 215.052 429.4 214.488 428.5 214.003C424.9 217.312 421.2 220.62 417.3 224.252C414.6 216.989 422 213.6 424.5 208.839C426.5 209.162 428.5 209.484 430.6 209.727C430.3 208.355 429.2 206.741 429.8 205.773C431.031 204.035 432.66 202.501 434.6 201.254C438.5 198.671 445.5 197.3 438.7 191.651C438 191.086 440.4 188.1 441.4 186.325C441.7 185.76 442.5 185.357 442.9 184.792C443.9 183.339 444.8 181.887 446.4 179.627C446.8 179.869 446.9 180.515 446.4 179.627C440.2 176.4 440.8 176.964 446.4 172.688C449.1 170.589 454.5 168.572 453.2 163.569C452.9 162.359 457.4 160.341 460 158.485C459.68 158.282 459.347 158.093 459 157.92C460.1 156.468 461.3 154.935 462.6 153.079C463.5 153.24 465 153.482 467.9 154.047C466.1 150.9 464.8 148.64 463.5 146.462C463.8 146.058 464.1 145.574 464.4 145.17C466.8 145.816 469.2 146.542 471.8 147.188C475.1 145.09 475.4 142.669 473.2 139.038C471.9 136.778 473.7 133.389 474.2 130C473.5 129.919 471.7 129.758 469.2 129.516C470.3 128.305 471.3 127.337 472.2 126.369C480.4 130.484 483.7 130.161 486.8 124.109C487.2 126.046 487.4 127.175 487.6 128.386C488.21 128.455 488.812 128.563 489.4 128.709C490.5 125.965 491.5 123.141 492.9 119.509C494.5 118.541 497.6 116.685 500.6 114.829C498.6 113.861 496.7 112.812 493.3 111.117C497.1 111.117 500 110.633 502.4 111.279C504.6 111.924 506.3 113.78 508.2 115.071C508.8 114.748 509.4 114.506 510 114.184C508.884 111.913 507.916 109.596 507.1 107.244C506.8 106.356 507.5 105.226 507.7 104.258C516.3 106.114 514.4 101.353 514.2 97.2376C515.8 97.1569 517.4 97.0762 518.7 97.0762C518.3 101.595 517.9 105.872 517.5 110.23C518.4 110.391 519.4 110.472 520.3 110.633C521.5 107.082 522.7 103.532 523.7 100.385C526.7 99.3357 528.4 105.953 530.9 100.546C531.7 98.9322 531.4 96.9955 532 95.3009C532.733 93.7591 533.637 92.2737 534.7 90.8627C537.9 94.5747 528.2 100.707 540 100.062C539.8 97.8025 539.6 95.7851 539.5 93.9291C545.3 95.1395 550.3 96.1079 555.3 97.1569C555.5 97.7218 555.8 98.2866 556 98.8515C552 100.788 548 102.644 544.8 104.177C547.132 105.813 549.568 107.348 552.1 108.777C553 109.261 554.8 108.777 556 108.454C558.4 107.97 560.9 106.518 563.1 106.76C569.1 107.405 575 108.696 582.1 109.907C584.575 108.234 587.504 107.056 590.648 106.467C593.793 105.878 597.065 105.896 600.2 106.518C605.9 107.567 611.3 109.503 616.9 110.714C622.38 111.945 627.96 112.862 633.6 113.457C640.1 114.103 650.6 119.59 652.1 123.706C653.477 127.293 653.373 131.145 651.804 134.681C650.235 138.218 647.286 141.247 643.4 143.315C642.3 143.879 641.2 144.686 640 144.767C631 145.332 622 145.735 613.1 146.139C609.373 146.354 605.634 146.408 601.9 146.3C599.443 146.11 597.025 145.677 594.7 145.009C591.7 144.283 588.8 143.315 585.8 142.427C585.4 143.153 585 143.96 584.7 144.686C589.3 146.462 593.9 148.076 598.3 150.093C599.7 150.738 600.4 152.272 602 153.966C614.1 154.773 617.8 157.84 615.8 164.86C618.7 168.814 620.6 172.365 623.5 175.189C625.4 177.045 628.7 178.255 631.6 179.305C634.108 180.198 636.773 180.769 639.5 180.999C644 181.322 648.6 181.725 652.9 181.08C654.4 180.838 656.3 177.287 655.9 175.593C655.5 173.898 651.3 171.074 650.6 171.396C644.5 173.979 641.5 170.186 637.4 168.088C638 166.232 638.5 164.457 639.1 162.52C649.6 164.537 660 165.586 671.5 161.713C669.2 159.373 667.7 156.871 665.1 155.338C656.1 150.174 655 146.946 660.5 139.36C661.7 137.666 663.3 136.133 664.1 134.438C664.9 132.743 664.7 130.968 665.1 128.063C671.3 128.628 677.3 129.193 683.2 129.758C681.5 126.046 679.3 121.204 676.9 116.362C676.4 115.475 675.4 114.103 674.5 114.022C665.6 113.215 666.5 106.598 663.5 102.241C661.527 99.6525 659.391 97.1476 657.1 94.7361C666.1 88.8453 669.1 88.8453 677.5 94.8168C675.6 98.3673 673.7 101.595 672.2 104.984C671.8 105.791 672.2 107.486 672.9 107.809C676.4 109.342 680.2 110.391 683.8 111.763C688.7 113.538 690.8 110.633 693.4 108.293C694.461 107.447 695.598 106.665 696.8 105.953C696.8 105.549 697 105.065 696.8 104.823C691.7 98.6901 693.3 92.7187 696.5 86.4245C699.4 80.6951 701.4 74.643 704 68.1874C706 69.4785 707.2 70.2048 708.5 71.0117C713.2 66.8962 700.4 63.5877 709 59.6337C710.6 60.6827 712.5 61.9738 714.7 63.507C714.1 64.7982 713.5 66.17 712.9 67.4611C713.3 67.8646 713.8 68.2681 714.2 68.6715C717.7 66.7349 721.2 64.7982 724.6 62.8615C722.3 56.8094 723.2 53.6623 729.9 51.1607C735.8 48.9012 732.1 44.0595 735.4 41.3159C736.2 40.6703 736.3 39.5406 736.7 38.653C737.856 39.113 738.96 39.653 740 40.2669C740.5 40.5896 740.4 41.3966 740.9 41.6387C742.4 42.3649 744.1 43.3333 745.8 43.414C747 43.4947 749.4 41.9615 749.3 41.7194C748.406 40.0237 747.371 38.3791 746.2 36.797C749.4 30.9869 748.5 28.6468 740.7 27.275C735.8 26.3873 734.2 24.0471 732.8 20.9807L733 21.1421C741.5 15.5742 749.6 9.84481 761.8 9.44133C770.9 9.19925 780 7.10118 789.1 5.48728C790.5 5.24519 791.4 2.98573 793.2 0.887654C802.2 0.887654 812.4 0.726264 822.6 0.968349C827.2 1.04904 830.2 6.29423 829 12.2657C828.2 10.8132 827.7 10.0869 826.9 8.71508L816.5 15.4128C822.6 20.0124 829.2 18.9634 833.8 13.5568C835 12.185 836.2 10.329 837.9 9.68342C844.3 7.50465 843.3 4.92241 837.4 1.21043C840.8 0.968349 842.8 0.726264 844.7 0.726264C907.1 0.726264 977.2 0.726264 1039.6 0.645569V6.93979C1039.4 142.992 1039.37 279.044 1039.5 415.096C1039.5 416.629 1039.3 418.081 1039.2 419.534C1033.8 419.13 1032.4 410.496 1025.7 415.499C1019.5 420.099 1016.7 421.309 1023 430.508C1016.8 428.491 1013.7 425.425 1013 420.502C1012 412.352 1010.4 411.626 1001.6 414.45C999.4 415.176 996.6 414.773 994.1 414.854C992.1 414.934 990.1 415.096 988.3 415.176C981.7 410.738 976.4 403.96 965.3 405.574C964.4 405.735 963.2 404.767 962.1 404.363C962.8 403.395 963.1 401.942 964.1 401.539C968.1 399.764 972.2 398.311 976.3 396.778C976.5 396.697 976.5 396.213 976.6 395.567C973.3 395.003 970 394.518 967.5 394.115C965 381.365 978.6 379.509 989.4 374.183C985.3 373.538 983.2 373.134 982.6 373.053C979.3 367.163 976.7 361.918 973.4 356.995C972.3 355.301 969.2 352.96 967.5 353.203C964.7 353.525 962.3 355.704 959.8 357.237C958.1 358.206 956.3 360.465 954.9 360.304C943.9 358.932 942.3 366.033 938.4 371.359C936.1 374.506 932.4 377.088 930.6 380.397C929.4 382.737 930.4 385.884 930.4 388.789C923.4 391.371 928 401.377 919 402.104C918.6 408.882 918.7 415.418 917.5 421.793C916.8 425.425 916.7 426.716 922 427.119C927.8 427.523 932.2 429.701 935.2 434.785C938.4 440.192 943.2 445.195 951.3 447.777C962 451.247 971.9 456.25 981.9 460.85C986.2 462.867 989 463.351 1001.5 462.625C1000.33 463.426 999.228 464.289 998.2 465.207C995.2 468.274 993.4 471.017 995.2 475.617C996.8 479.732 1000.2 484.009 997 489.335C995.4 491.998 998.7 496.517 1000.1 500.875C996.3 500.229 992.7 499.583 990.3 499.18C988.8 495.387 987.6 492.321 986.3 488.932C978.2 485.865 978 485.946 973.9 492.563C971.9 495.791 970 499.18 968.2 502.488C960.6 516.045 951.3 513.302 940.3 508.702C938.6 507.976 936.8 506.765 935.2 506.846C933.8 506.927 932 508.379 931.4 509.59C930.3 511.607 930 513.947 929.1 517.336C932.6 520.806 937.3 525.406 941.8 530.086C942.4 530.732 942.2 532.104 942 533.072C941.4 535.815 942.4 536.865 946 537.833C949.2 538.721 951.6 541.626 954.6 543.804C953.6 545.015 952.4 546.467 951.1 548C948.5 545.499 946.4 544.45 943.2 547.597C941.8 549.049 938.3 549.211 935.6 549.695C930.2 550.663 925 551.793 924.3 555.263C920.7 557.119 918.6 558.249 916.5 559.378C913.1 561.154 909.5 562.848 906.2 564.704C901.5 567.367 896.8 570.03 892.3 572.935C887.6 575.921 883.3 579.472 878.3 582.215C876.2 583.345 872.6 583.99 870.3 583.426C864.4 581.973 860.6 583.829 857.4 587.46C854.2 591.092 850.2 592.867 844.6 592.06C839.7 591.334 837.8 593.513 839.5 596.902C841.9 601.582 838.9 605.375 837.4 609.571C832.5 606.666 829.7 603.761 834.1 599C834.8 598.273 832.7 595.853 831.9 594.239C830.4 594.804 828.1 595.046 827.4 596.014C824.1 600.533 820.7 603.277 813.1 601.743C806.9 600.452 805.6 606.02 802.9 609.167C800.6 611.83 798.4 614.816 795.3 616.753C792.06 618.787 788.304 620.219 784.3 620.949C782 621.433 778.8 620.545 776.7 619.416C768.5 614.897 759.8 614.655 750.6 616.026C747.3 616.511 745.8 617.64 746.3 620.707C747 624.58 742.2 629.987 736.8 630.552C732.4 631.036 727.1 631.52 724.9 626.436C724.5 625.548 720.9 625.548 718.6 625.629C714.3 622.885 710.1 620.787 704 623.45C701.3 624.661 697.8 624.661 694.5 625.226C696.2 624.096 698.2 623.289 698.7 622.159C699 621.594 697 619.496 695.7 619.254C691.9 618.609 691.1 616.995 691 614.09C691 612.718 688.8 611.185 687.1 610.136C685.7 609.329 683.7 609.167 681 608.441C683.3 606.747 684.7 605.697 686.7 604.245C684.4 603.68 682.6 603.196 680.1 602.55C681.4 600.856 682.5 599.403 683.1 598.677C680.8 594.884 678.8 591.495 676.3 587.299C674.7 587.783 671.4 588.832 668.2 589.801C665.6 582.941 670 573.984 677.8 574.065C687.2 574.226 694.4 569.223 703.3 569.385C706.8 569.465 709.6 568.416 705.7 564.704C710 563.01 714.2 561.396 719.7 559.217C714.2 558.975 710.5 558.975 706.9 558.572C706.1 558.491 705.5 557.119 704.7 556.393C705.7 555.828 706.5 554.94 707.6 554.779C715 553.649 722.5 552.923 729.7 551.39C732.5 550.825 735.3 548.727 737.2 546.79C746.2 537.833 754.4 528.23 770.1 525.971C774.9 525.325 779.4 523.469 784.8 521.936C787.5 525.244 791.9 526.374 797.2 523.308C797.7 523.066 798.9 522.824 799 522.985C804.4 528.956 811.6 524.76 817.6 524.76C826.7 524.76 836.4 525.89 844.3 519.838C847.4 517.417 852.6 516.529 857.1 515.642C861.9 514.673 866.1 513.705 868.6 509.751C871.7 504.829 875.4 500.229 878.5 495.307C878.821 494.588 878.959 493.825 878.908 493.063C878.856 492.301 878.615 491.554 878.2 490.868C873.7 482.799 862.9 478.361 852 478.199C846 478.118 839.9 476.02 834.1 474.245C827.1 471.986 821 468.919 812.5 469.888C807 470.533 800.9 467.467 795 466.176C792.6 465.611 790 465.288 786.4 464.642C790.8 462.383 794.7 460.366 798.5 458.429C794.8 450.763 797.4 447.535 805.5 443.662C800.8 442.209 797 440.999 791.7 439.385C794.6 437.852 796.8 436.722 798.9 435.592C798.5 435.431 798.1 435.35 797.7 435.189C799.7 432.849 801.8 430.508 803.8 428.088C804.928 427.012 805.809 425.782 806.4 424.456C806.6 423.972 804.6 422.439 803.8 422.6C802.061 422.951 800.429 423.583 799 424.456C797.5 425.263 796.2 426.393 794.7 427.361C789.5 430.508 784.1 433.575 779 436.883C775.318 439.157 771.812 441.609 768.5 444.227C765.317 447.132 762.377 450.205 759.7 453.426C758.2 455.04 757.1 456.896 754.7 459.962C757.4 461.979 760.9 465.207 765.1 467.79C771.6 471.744 773.9 464.4 779.8 463.997C780.3 465.288 780.8 466.821 781.2 468.032C780.6 468.596 780.5 468.839 780.3 468.839C768.2 470.775 761.6 477.796 756 485.785C755.471 486.407 754.79 486.935 753.999 487.338C753.208 487.74 752.324 488.008 751.4 488.125C750.4 488.205 748.8 486.672 748.1 485.623C746.3 482.96 748.9 478.361 742.5 477.876C738.5 477.554 734.5 477.231 729.9 476.908C732.7 474.487 735.2 471.905 738.2 469.807C741.4 467.628 743.2 465.53 739.5 461.818C735.4 463.109 731.1 464.804 726.5 465.853C723.9 466.498 720.8 466.095 718 466.014C717.7 466.014 717.2 464.965 717.2 464.481C717.297 463.826 717.688 463.223 718.3 462.786C719.704 462.098 721.175 461.504 722.7 461.011C718.8 459.478 715.8 458.348 712.4 457.057C712.1 457.864 711.7 459.317 711.3 460.688C708.297 460.537 705.331 461.285 702.969 462.789C700.607 464.293 699.016 466.447 698.5 468.839C697.5 474.487 695.9 479.652 688.1 481.83C687.6 481.992 687.4 484.736 688.1 485.623C692.8 490.868 692.7 494.661 685.9 499.341C682.7 501.601 682.5 507.169 682.1 511.284C681.7 514.512 683.1 517.82 683.7 521.048C682.92 520.897 682.152 520.708 681.4 520.483C679.8 522.985 677.6 525.325 676.7 527.907C675.4 531.861 675 535.977 674.1 540.577C678 541.787 681.8 544.692 684.4 549.534C685.8 552.116 692.2 552.923 696.3 554.537C698 555.182 699.8 555.828 701.5 556.473C699.4 557.28 697.4 558.814 695.3 558.814C691.92 558.78 688.586 559.454 685.625 560.769C682.663 562.084 680.174 563.996 678.4 566.318C677.1 568.094 673.7 569.143 671 569.788C667.9 570.595 662.6 571.967 661.6 570.918C659 568.336 656.8 568.901 653.7 569.304C647.9 570.111 642 570.353 636.2 571.079C634.9 571.241 633.8 572.37 632.7 573.097C631.6 573.823 630.5 575.437 629.5 575.437C624.3 575.195 622.7 576.082 626 580.117C626.6 580.763 624.5 584.071 623.9 583.99C620.392 583.596 616.942 582.92 613.6 581.973C613.3 581.892 613.3 580.763 613.1 580.117C603.8 583.184 608.5 591.818 620.1 599.645C613.7 600.936 616.4 603.68 618.8 606.262C616.8 607.311 615.2 608.118 613.7 608.925C620 611.185 625.9 614.09 632.3 615.22C637.8 616.188 637.6 618.77 637.9 622.886C633.1 618.205 628.4 620.142 622.6 622.724C624.4 620.949 625.2 620.061 626.2 619.093C617.2 616.349 608.9 615.462 600 618.689C594.3 620.787 590.9 616.349 587.4 613.363C583.9 610.378 580.6 607.069 576.7 604.406C571.3 600.694 570 593.997 562 591.979C560.4 591.576 560.6 586.331 560.3 583.264C560.183 580.924 560.217 578.581 560.4 576.244C560.4 574.549 560.6 572.935 560.4 571.241C560.3 569.788 560.3 567.69 559.3 567.125C545.7 560.024 531.933 553.084 518 546.306C515.374 545.114 512.543 544.244 509.6 543.724C502.375 542.443 495.935 539.159 491.4 534.444C492.8 534.04 494 533.717 495.4 533.395C495.041 532.94 494.64 532.509 494.2 532.104C489.8 530.409 487.5 527.907 486.2 523.792C485.4 521.129 481.5 519.031 478.9 516.771C477.5 518.385 476.1 520.08 474.6 521.694C473.7 522.662 472.7 523.55 470.4 525.729C469.3 521.613 468.3 518.789 467.8 515.884C467.5 514.351 468.1 512.737 468.4 511.123C465.7 511.042 462.6 510.235 460.3 510.961C456.1 512.253 451.4 513.786 448.8 516.449C447.1 518.143 448.8 521.936 449.7 524.76C446 530.328 446.9 535.331 453.5 539.608C454.318 540.171 455.187 540.684 456.1 541.141C465.2 545.095 471.3 550.421 474.2 559.056C477 567.367 491.3 572.855 502.4 571.644C503.932 571.563 505.468 571.563 507 571.644C503.4 578.342 503.9 579.472 512.8 581.328C523.448 583.554 533.465 587.418 542.3 592.706C546.3 595.126 546.8 597.386 544.3 600.614C543.5 600.452 542.5 600.452 542.4 600.21C540.2 593.916 533.1 593.916 527.2 592.786C525.2 592.383 521.6 593.351 520.6 594.642C518.568 597.504 517.116 600.61 516.3 603.841C516.1 604.729 518.4 606.343 519.8 607.311C521.6 608.522 524.4 609.006 525.5 610.378C527.6 613.121 530.3 616.43 523.2 617.721C521.5 618.044 518.8 619.9 519 620.545C520.9 625.791 514.8 628.05 512.9 631.843C512.4 632.811 509.6 633.134 507.9 633.699C508 632.246 507.5 630.632 508.2 629.503C510 626.436 512.5 623.612 514.4 620.626C514.8 619.9 514.3 618.689 513.8 617.802C511.5 613.363 509.5 608.764 506.6 604.487C505.4 602.712 502.7 601.179 500.2 600.372C497 599.403 493.7 599.403 493 595.53C492.7 594.077 489.4 592.867 487.3 591.657C483.8 589.72 480.2 587.864 476.5 586.089C473.7 584.717 470.9 582.619 468 582.538C459.4 582.377 454.2 578.584 449 573.742C445.4 570.434 440.1 568.416 436.4 565.189C431.949 561.462 428.025 557.348 424.7 552.923C422.2 549.534 422.6 544.046 419.3 541.948C413 537.914 405.2 535.089 397.5 532.991C395.7 532.507 392 536.784 388.9 538.64C386.528 539.947 384.056 541.133 381.5 542.19C376.8 544.289 371.7 545.983 367.6 548.565C358.5 554.456 350.5 553.407 344.7 544.773C340.2 550.018 335.8 545.095 331.1 544.934C328.388 544.933 325.692 545.26 323.1 545.902C321.7 546.225 320.6 547.274 319.2 547.758C312.9 550.099 310.6 554.779 313 560.105C315.8 566.318 313.7 570.434 306.3 572.935C298.4 575.679 291.1 579.068 282 579.794C277.5 580.198 273.5 585.039 269.5 588.106C266.1 590.769 263.1 593.835 259.8 596.66C251.6 603.599 251.3 608.118 258.2 614.655C251.9 619.981 245.6 625.226 238.1 631.439C232.1 630.713 226.2 633.457 222.4 639.509C220.9 641.849 219.1 642.333 215.5 641.284C211.9 640.235 207.8 640.8 203.9 640.396C199.2 639.831 194.6 638.54 189.9 638.379C181 638.218 172.1 639.025 164.6 643.543C162 645.157 159.9 645.319 157.3 643.221C152.9 639.589 151.3 633.86 152 632.892C151 630.874 150.6 628.534 149 627.001C144.7 622.643 139 621.191 132.1 622.724C129.9 623.208 127.1 622.643 124.8 621.998C121.4 621.11 118.1 619.738 114.4 618.447C116.7 612.395 119.2 605.94 122.1 598.435C121.103 597.766 119.946 597.272 118.7 596.982C113.7 596.014 111.3 593.028 113.5 589.478C115.3 586.573 118 583.991 120.3 581.328C122 579.31 124.6 577.535 125.5 575.356C128 569.143 135.2 564.785 135.7 557.765C136.082 552.679 136.816 547.614 137.9 542.594C138.3 540.577 141 538.64 140.9 536.784C140.7 533.798 143.6 529.037 136.2 528.553C136.6 527.262 136.7 525.083 137.6 524.841C145 522.824 152.6 521.21 160.2 519.596C161.1 519.434 163.1 519.919 163.4 520.483C165.9 526.294 172.6 524.599 177.7 525.89C183 527.181 188.6 527.665 193.6 529.441C200.8 531.942 207.5 535.493 215.8 533.475C216.439 533.368 217.103 533.424 217.7 533.637C223.4 535.493 229.2 537.349 234.9 539.205C242.4 541.706 248.7 539.366 251.5 533.153C253.5 528.714 256.3 524.438 258 519.838C258.9 517.256 258 514.27 258.3 511.446C258.4 510.154 259.4 508.944 260.5 506.604C262.6 510.639 264.1 513.624 265.6 516.691C266 516.61 266.4 516.449 266.8 516.368C265.4 511.768 264.1 507.169 262.8 502.569C262.263 501.327 262.059 500.007 262.2 498.696C262.9 495.226 261.6 492.805 257.7 490.949C253.1 488.77 250.1 485.704 252.2 480.862C252.5 480.217 251.8 479.329 251.5 478.603C250.083 476.298 249.17 473.814 248.8 471.259C240.7 467.79 232.7 464.32 224.1 460.688C224.6 458.994 225.5 456.412 226.4 453.345H220.8C221.2 452.457 221.4 451.731 221.7 451.651C224.6 451.247 227.6 450.924 230.5 450.682C233.2 450.521 236 449.956 238.5 450.521C241.6 451.247 244.5 452.861 247.4 454.071C247.21 454.542 246.976 455.001 246.7 455.443C252.9 455.927 259.2 456.331 266.1 456.896C264.7 451.328 263.3 446.728 262.6 442.048C262.5 441.16 265.3 440.03 267 438.901C268.6 441.806 269 444.711 270.7 445.276C274.9 446.728 279.7 447.374 284.3 447.858C285.5 448.019 288 446.325 288 445.518C288.1 441.241 291.6 440.918 295.5 440.434C297.86 440.16 300.175 439.673 302.4 438.981C306.1 437.69 309.7 436.561 308.9 431.961C308 426.877 310.2 422.923 318.2 423.407C320 423.488 322 422.762 323.8 422.197C334.1 418.727 334.1 418.727 345.8 420.906C344.5 418.081 343.4 415.822 342.4 413.562C345.1 408.64 348.2 402.911 351.3 397.181C351.492 396.512 351.907 395.899 352.5 395.406C357 393.227 361.5 390.806 366.3 389.193C371.1 387.579 376.4 386.207 380.3 390.887C380.7 391.291 382.3 391.048 383.5 391.129C380.3 385.481 380.9 384.916 390.7 384.512C392.5 386.449 394.3 388.386 396.1 390.242C401 388.063 394.8 380.558 405 382.414C403.6 373.78 402.5 365.63 400.7 357.641C400.3 355.946 397.4 354.574 396.7 354.009C396.4 348.603 396.1 343.842 395.9 339.242C398.6 338.274 401.2 337.386 404 336.418C404.8 336.902 405.9 337.548 407 338.193C407.6 336.337 408.3 334.401 409.1 332.06C413.1 330.608 416.9 329.64 418 335.692C418.3 337.467 421.5 338.919 424.1 341.26C424.1 341.26 423.1 343.116 422.8 343.116C416.9 341.824 417.2 345.052 416.7 348.038C416.5 349.168 415 350.217 414 351.266C412.8 352.557 410.9 353.687 410.3 355.139C409.325 357.421 408.884 359.829 409 362.24C409.1 364.096 408.2 367.082 412.7 367.082C413.3 367.082 414.4 368.05 414.3 368.454C412.7 376.685 421.3 372.65 425.2 374.345C425.6 374.506 426.4 374.264 427.7 374.183C426.2 376.039 425 377.572 423.4 379.509C426.7 380.235 429.4 380.8 431.2 381.123C436.4 377.976 440.9 374.99 445.8 372.489C446.9 371.924 449.8 372.892 451.2 373.86C454.7 376.281 457.7 379.186 461.1 381.769C462.016 382.257 463.032 382.612 464.1 382.818C466.7 381.042 468.7 378.621 471.3 377.976C482.6 375.313 491 368.938 500.8 364.338C502.7 363.451 504.7 362.24 506.7 362.24C508.7 362.24 511.1 363.128 512.9 364.016C515.6 365.387 518.5 368.777 520.2 368.373C523.9 367.405 528.8 365.145 529.9 362.482C531.7 358.044 534 356.592 539.5 357.076C543.1 357.399 545.5 356.027 544.4 352.638C542.5 346.989 540.6 341.34 538.4 335.692C536.7 331.415 535.6 327.299 539.2 323.184C540 322.331 540.358 321.26 540.2 320.198C538.3 314.63 542.4 312.129 548.8 309.95C551.8 312.371 554.7 315.356 558.4 317.535C560.3 318.665 564.6 319.633 565.7 318.826C568.2 317.051 570.8 314.065 570.7 311.645C570.3 306.238 568.3 300.831 566.9 295.102C563.9 295.425 559.5 298.411 557.6 293.246C556.5 290.341 555.1 287.436 553.6 283.885C560.4 280.9 567.1 277.349 574.4 275.09C579.3 273.637 585.1 274.041 590.4 273.718C594.2 273.476 598.4 273.879 597.1 268.957C597 268.634 598.4 268.231 598.9 267.746C603.5 263.389 608.2 259.031 617.3 261.371C617.2 260.645 617.2 259.919 617.1 259.273C614.3 258.144 611 255.723 608.8 256.207C601.5 257.902 598.5 254.916 596.3 250.155C590.3 253.867 584.7 257.417 576.8 256.772C575.2 256.61 572.5 257.982 571.8 259.193C568 266.213 558.3 266.697 552 270.974C550.8 271.781 546.1 271.136 545.7 270.329C543 265.245 536.6 266.132 532 265.164C527.4 264.196 525.9 261.614 526.6 259.515C529.4 251.204 523.4 244.506 520.9 237.163C519.7 233.612 517 230.546 521.2 227.157C521.8 226.673 521.2 225.059 522 224.736C523.8 222.557 525.8 220.378 527.5 218.2C528.46 216.864 529.264 215.459 529.9 214.003C533.2 207.79 536.2 201.415 539.8 195.282C541.2 192.861 544 191.005 546.1 188.988C545.3 187.374 544.2 185.195 543.3 183.017C542.1 180.192 534 177.287 530.3 178.175C526.1 179.224 521.8 180.031 516.6 181.08C515 183.178 512.7 186.244 511.3 188.181C510.6 191.489 509.9 193.588 509.9 195.686C510.071 197.51 510.439 199.319 511 201.092C511.3 202.867 512.3 204.723 511.8 206.337C510.1 212.067 506 216.102 500.1 219.975C494.6 223.606 492.3 230.304 488.3 235.549C487.1 237.163 484.7 238.131 484.4 239.422C483.8 243.376 482.2 247.411 482.7 251.285C483.5 257.256 484 264.034 487.9 268.715C491.8 273.395 499.6 275.574 506.3 279.286C502.9 282.514 500.4 284.934 497.7 287.517C495.3 285.015 493.5 283.078 491.7 281.142C491.2 281.303 490.6 281.545 490.1 281.707C490.4 283.078 490.6 284.45 490.8 285.177C486.3 285.741 481.5 286.387 476.8 286.952C476.9 287.597 476.9 288.243 477 288.888C479.8 289.131 483 288.808 485.5 289.695C488.3 290.664 490.5 292.681 493 294.295C490.7 296.312 488.7 298.653 486.1 300.347C484.9 301.154 482.6 300.831 480.8 301.88C482.4 302.042 484 302.284 484.6 302.365C484.9 305.028 485.5 307.287 485.3 309.546C484.6 319.068 487.2 328.752 482.4 337.951C481.931 338.663 481.291 339.294 480.519 339.806C479.747 340.319 478.857 340.703 477.9 340.937C474.8 341.663 470.9 341.018 468.5 342.309C464.1 344.73 459.4 347.877 464.5 353.364C460.5 354.252 457.1 355.22 453.6 355.543C452.6 355.623 450.9 354.252 450.1 353.203C448.3 350.62 446.8 347.957 445.2 345.294L446.6 344.81Z" fill="#4C4C4C"/>
<path d="M296.7 389.435C298.9 389.757 301.4 390.726 303.2 390.241C307.7 389.031 313.6 390.161 315.6 393.227C317.4 396.052 315.3 402.669 311.6 404.121C307.9 405.574 303.2 405.977 302.8 410.496C302.8 410.819 300.5 410.98 298.6 411.384C302 413.401 304.9 415.015 308.2 416.952C304.8 421.39 298.5 421.713 293.3 421.955C288.1 422.197 283.1 419.937 277.8 419.534C273.6 419.211 269.3 420.018 265 420.26C263.098 420.464 261.165 420.382 259.3 420.018C248.6 417.194 248.6 417.113 243.7 423.407C238 422.358 232.4 421.309 226.4 420.26C231.2 416.952 236.6 413.24 242.1 409.608C242.579 409.409 243.111 409.306 243.65 409.306C244.189 409.306 244.721 409.409 245.2 409.608C252.6 413.482 257 410.415 260.8 405.009C259.6 404.928 258.4 404.444 257.8 404.847C250.2 408.963 247.2 401.942 241.9 400.651C239.9 400.167 238 399.764 236 399.199C234.223 398.663 232.487 398.043 230.8 397.343C232 396.455 232.9 395.164 234.3 394.68C237.3 393.711 240.7 393.55 243.5 392.34C250.2 389.435 250.8 385.803 245.6 377.895H261.6L268 364.984C265.4 362.16 261.9 360.062 262.2 358.286C262.5 355.462 265.4 352.88 267.4 349.975C266.22 349.742 265.014 349.607 263.8 349.571C259.5 349.733 255.1 350.297 250.8 349.975C249.8 349.894 247.9 345.698 248.5 345.214C255.1 339.888 251.5 333.109 253.4 326.573C250.8 326.977 248.8 327.299 244.8 327.945C247.9 324.233 250.1 321.57 252.5 318.746C249.8 318.342 247.2 318.019 244.4 317.616C250.5 313.258 257.4 309.224 251.4 303.252C255.8 299.056 259.6 295.344 263.9 291.309C268 291.793 273.6 292.52 281 293.407C278.8 295.505 277.5 297.039 275.8 298.249C272.9 300.347 269.7 302.122 266.9 304.301C265.9 305.108 265.5 306.48 264.8 307.61C266.4 307.771 268 308.417 269.5 308.094C277.1 306.722 283.7 308.82 291.3 310.999C283.5 319.31 279.5 329.075 266.5 333.674C268.6 334.4 270 335.207 271.5 335.369C280.3 336.256 283.4 338.355 285 345.294C285.6 348.038 285.1 351.024 286.1 353.687C287.1 356.35 288.7 359.335 291.2 360.868C298.2 365.145 296.7 371.44 298.4 377.007C298.8 378.137 298.6 379.59 299.4 380.397C302.4 383.705 301 385.803 296.5 387.417C296.662 388.081 296.729 388.758 296.7 389.435Z" fill="#4C4C4C"/>
<path d="M9.8 189.23C12.8 187.051 16.2 184.55 20.5 181.483C17.9 180.918 16.8 180.676 15.2 180.273C16.5 179.466 17.6 178.74 20.2 177.126C16.7 177.449 15 177.691 13.4 177.852C12.5 176.319 12 174.221 10.4 173.333C8.6 172.365 5.9 172.607 2.6 172.203C7.7 168.411 15 173.414 19.6 167.846C16.8 167.684 15.2 167.684 12.5 167.523C14.8 165.99 16.3 164.941 18.5 163.408C13.2 158.727 6.8 159.857 0 159.776C1.9 159.05 3.8 158.404 3.9 158.324C4.4 154.773 4.7 152.433 5 149.77C8.1 151.707 10.8 153.321 14.1 155.419C14.3 153.886 14.5 153.159 14.5 152.352C14.5 151.223 14.4 150.012 14.4 148.882C16 149.447 18.1 149.77 19 150.738C20.5 152.352 21.3 154.45 22.7 156.71C21.5 157.113 20.3 157.598 19 158.082C20.7 161.229 22.3 164.295 24.2 167.846C25.3 165.667 26.3 163.972 27.2 162.278C32.6 164.618 32.6 164.618 33.9 153.966C36 156.468 37.6 158.485 39.7 161.067C41.9 158.082 43.8 155.58 46.4 152.191C48.9 156.468 50.6 159.453 52.3 162.439C52.8 162.359 53.3 162.197 53.9 162.116C53.7 159.696 53.5 157.275 53.2 154.289C55.2 155.58 56.8 156.548 57.3 156.871C61.1 156.387 64.4 156.629 66.6 155.499C68.8 154.37 69.8 151.787 72.4 148.56C72.5 155.257 83.8 155.257 82.2 162.681C82 163.73 85.2 166.07 87.2 166.393C91.1 167.039 91.6 168.653 91.1 171.235C90 177.206 84.6 181.241 80.2 185.518C78.2 187.455 73.6 187.455 70.3 188.504C64.2 190.521 58.2 192.7 52.1 194.798C51.5 195.04 50.5 194.879 50.2 195.121C44.2 203.432 37.1 197.299 30.4 196.008C29.2 195.766 28 194.637 27.2 193.668C24.7 190.44 21.8 188.423 16.4 189.633C14.1 190.279 11.3 189.391 9.8 189.23Z" fill="#4C4C4C"/>
<path d="M177.7 392.501C178.4 386.368 175.1 384.916 170.3 385.158C177.7 378.621 185 372.246 192.2 365.952C188.7 363.935 184.7 361.595 180.1 358.932L189.2 355.381C188.4 353.122 187.7 350.862 186.5 347.312C194.9 349.975 202.5 354.332 209.1 346.666C207.5 345.94 206 345.214 205.2 344.891C206.8 342.873 208.2 340.937 210.4 338.112C212.1 339.161 213.7 340.775 215.8 341.421C218.17 342.115 220.735 342.255 223.2 341.824C230.5 340.211 232 340.775 233.8 346.585C234.4 348.603 236.1 350.459 236.6 352.476C236.9 353.687 236.2 356.188 235.5 356.35C223.1 358.528 225 366.678 224.6 373.538C224.1 382.172 216.7 387.74 206.1 386.852C204.6 386.691 203 387.417 201.4 387.74L177.7 392.501Z" fill="#4C4C4C"/>
<path d="M703.3 20.9C699.9 23.8857 696.9 27.1136 693.2 29.5344C691.1 30.8255 687.7 31.0676 684.9 30.9869C683.9 30.9869 683 28.7275 681.5 26.7908L668.2 25.9031C668 27.1136 667.7 28.2433 667.5 29.373C659.9 27.2749 658.9 25.8224 661.2 21.0614C662.8 17.7529 658.3 10.9745 655.2 10.8131C654.348 9.11433 653.679 7.35945 653.2 5.56796C653 4.27684 653.4 1.77529 654.1 1.6139C657.3 0.887646 661 2.68221e-07 663.9 0.726256C666.1 1.29112 667.6 4.11545 669.3 5.89074C671.8 8.55368 673.5 12.185 676.7 13.7989C684.8 17.8336 693.1 22.4332 703.3 20.9Z" fill="#4C4C4C"/>
<path d="M503.1 630.955C501.7 633.941 500 636.846 499.2 639.831C498.7 641.849 499.7 644.108 499.6 646.287C499.5 648.466 499.6 651.209 498.1 652.743C497.1 653.711 491.9 653.711 491.1 652.743C486.7 647.094 478.3 648.385 472.5 645.238C469.1 643.382 464.4 643.14 460.7 641.526C459 640.8 458 638.702 457.4 637.088C457.3 636.684 460.1 635.474 461.7 634.828C463.136 634.379 464.606 634.001 466.1 633.699C467.2 633.456 468.6 632.569 469.2 632.811C477.2 637.168 484.6 634.425 492.3 632.165C495.7 631.358 499.4 631.439 503.1 630.955Z" fill="#4C4C4C"/>
<path d="M408.5 616.188C406.6 615.865 404.5 615.542 402.4 615.219C401.1 617.237 399.8 619.173 398.3 621.514C393.8 618.044 391.5 615.542 393.2 610.378C395.3 604.245 395.8 597.386 389.8 592.463C394.5 590.285 399.1 587.944 403.9 586.088C408.4 584.394 408.3 586.895 409.8 589.8C414.5 598.515 409.4 606.746 409.6 615.219C409.5 615.461 409 615.784 408.5 616.188Z" fill="#4C4C4C"/>
<path d="M595.1 626.436C598.7 623.773 602 621.352 605.2 619.012C614.2 621.191 624 621.594 629.2 629.18C626.4 628.857 623.3 628.534 618.9 628.05C622.6 633.457 625.7 637.975 628.8 642.494C628.3 642.898 627.8 643.301 627.2 643.705C624.6 640.235 621.8 639.025 618.9 642.252C615.8 640.719 613.1 639.428 610.3 638.056C609.6 639.347 608.9 640.719 607.4 643.543C606.5 640.235 606.1 637.895 605.2 635.716C604.533 633.966 603.483 632.326 602.1 630.874C600.5 629.341 598.1 628.292 595.1 626.436Z" fill="#4C4C4C"/>
<path d="M808.3 625.145C807.3 626.759 806.3 627.646 806.2 628.534C806 634.828 799.8 641.042 792.1 641.607C789.8 641.768 787.2 640.396 784.8 639.751C786.3 638.217 787.4 636.361 789.3 635.312C795.2 631.923 801.5 628.776 808.3 625.145Z" fill="#4C4C4C"/>
<path d="M409.4 559.943C408.3 565.995 407.5 571.563 406.2 577.051C406 578.019 403.1 579.472 402.8 579.31C401.1 578.261 399.3 576.97 398.6 575.356C397.9 573.904 398.7 571.886 398.1 570.353C396.3 565.592 398.1 562.606 404.1 561.396C405.3 561.154 406.4 560.75 409.4 559.943Z" fill="#4C4C4C"/>
<path d="M677.8 660.328C669.8 661.861 664.3 665.331 656.7 662.265C652.8 660.651 647 662.023 641.8 662.023C641.7 660.651 641.6 659.279 641.5 657.988C642.2 657.907 642.6 657.746 642.9 657.826C653.4 663.072 665.6 654.679 677.8 660.328Z" fill="#4C4C4C"/>
<path d="M446.5 344.729C446.9 348.764 440.7 351.589 443.2 356.107C443.3 356.269 440 358.286 438.7 358.044C436.287 357.666 434.103 356.642 432.5 355.139C431.3 354.009 431.4 351.992 430.9 350.217C436.6 349.894 439.4 343.116 446.7 344.729C446.687 344.74 446.671 344.749 446.654 344.755C446.637 344.76 446.619 344.763 446.6 344.763C446.581 344.763 446.563 344.76 446.546 344.755C446.529 344.749 446.513 344.74 446.5 344.729Z" fill="#4C4C4C"/>
<path d="M686.5 65.4437C685.801 68.3868 684.899 71.2964 683.8 74.1588C683.7 74.4816 679.4 74.4009 678.9 73.6746C677.4 71.5765 675.2 68.4294 676.2 66.8155C677.2 65.2016 681.6 64.8789 684.5 64.0719C685.2 64.5561 685.8 65.0402 686.5 65.4437Z" fill="#4C4C4C"/>
<path d="M300.2 605.133C305.6 601.098 309.8 601.582 313.3 606.101C308.3 614.09 304.8 606.343 300.2 605.133Z" fill="#4C4C4C"/>
<path d="M733 20.3352C730.5 25.4996 724.6 23.1595 720.3 23.805C719.1 23.9664 717.3 21.2228 715 19.044C722.2 19.6089 727.7 20.0124 733.2 20.4159C733.2 20.4965 733 20.3352 733 20.3352Z" fill="#4C4C4C"/>
<path d="M421.6 328.913C417.1 328.429 414.4 328.187 409.6 327.622C413.9 324.959 417 323.103 420.1 321.167C420.6 323.587 421 326.008 421.6 328.913Z" fill="#4C4C4C"/>
<path d="M423.9 360.626L417 355.301C418.2 354.413 420.2 352.718 420.3 352.88C422.7 354.494 424.8 356.35 427 358.125L423.9 360.626Z" fill="#4C4C4C"/>
<path d="M512.3 310.999C511.3 314.792 510.3 318.504 509.3 322.216C505.1 315.276 506.3 312.29 512.3 310.999Z" fill="#4C4C4C"/>
<path d="M624.1 604.971C629.7 606.666 635.3 608.36 640.8 609.974L639.6 612.153C634.2 610.216 628.9 608.199 623.5 606.262C623.7 605.778 623.9 605.375 624.1 604.971Z" fill="#4C4C4C"/>
<path d="M542.4 299.056C545.2 297.361 548.1 295.667 550.9 294.053C551.6 294.779 552.3 295.586 553 296.312C550.2 298.088 547.4 299.782 544.6 301.558C543.9 300.67 543.1 299.863 542.4 299.056Z" fill="#4C4C4C"/>
<path d="M82.3 636.2C78.9 638.218 76.7 639.428 74.6 640.719C73.7 639.751 72.9 638.702 71.4 637.088C75.2 636.765 77.8 636.523 82.3 636.2Z" fill="#4C4C4C"/>
<path d="M845 0.0806951C907.4 0.0806951 977.5 0.0806951 1039.9 0V6.29422" fill="#4C4C4C"/>
<path d="M691.5 256C691.5 280.577 671.577 300.5 647 300.5C622.423 300.5 602.5 280.577 602.5 256C602.5 231.423 622.423 211.5 647 211.5C671.577 211.5 691.5 231.423 691.5 256ZM647 289.561C665.535 289.561 680.561 274.535 680.561 256C680.561 237.465 665.535 222.439 647 222.439C628.465 222.439 613.439 237.465 613.439 256C613.439 274.535 628.465 289.561 647 289.561Z" stroke="white" stroke-width="3"/>
<circle cx="647" cy="256" r="23" fill="#D9D9D9"/>
<path d="M714.455 272V240.5H719.225L733.04 263.495H730.475L744.065 240.5H748.835L748.925 272H743.345L743.3 249.185H744.47L732.95 268.4H730.34L718.64 249.185H719.99V272H714.455ZM781.365 272V247.97H786.99V272H781.365ZM768.81 255.89C771.9 255.89 774.24 256.58 775.83 257.96C777.45 259.34 778.26 261.29 778.26 263.81C778.26 266.42 777.36 268.46 775.56 269.93C773.79 271.37 771.27 272.075 768 272.045L757.11 272V247.97H762.735V255.845L768.81 255.89ZM767.505 267.905C769.155 267.935 770.415 267.59 771.285 266.87C772.155 266.15 772.59 265.1 772.59 263.72C772.59 262.34 772.155 261.35 771.285 260.75C770.445 260.12 769.185 259.79 767.505 259.76L762.735 259.715V267.86L767.505 267.905ZM811.983 272V251.39L813.288 252.74H803.523V247.97H826.023V252.74H816.303L817.608 251.39V272H811.983ZM832.307 281.045C831.137 281.045 829.967 280.85 828.797 280.46C827.627 280.07 826.652 279.53 825.872 278.84L828.122 274.7C828.692 275.21 829.337 275.615 830.057 275.915C830.777 276.215 831.512 276.365 832.262 276.365C833.282 276.365 834.107 276.11 834.737 275.6C835.367 275.09 835.952 274.235 836.492 273.035L837.887 269.885L838.337 269.21L847.427 247.97H852.827L841.577 273.935C840.827 275.735 839.987 277.16 839.057 278.21C838.157 279.26 837.137 279.995 835.997 280.415C834.887 280.835 833.657 281.045 832.307 281.045ZM837.257 272.855L826.412 247.97H832.262L841.082 268.715L837.257 272.855ZM861.773 272V251.39L863.078 252.74H853.313V247.97H875.813V252.74H866.093L867.398 251.39V272H861.773ZM880.163 261.56L879.083 240.5H885.743L884.618 261.56H880.163ZM882.413 272.315C881.363 272.315 880.493 271.97 879.803 271.28C879.113 270.59 878.768 269.765 878.768 268.805C878.768 267.845 879.113 267.035 879.803 266.375C880.493 265.685 881.363 265.34 882.413 265.34C883.463 265.34 884.318 265.685 884.978 266.375C885.638 267.035 885.968 267.845 885.968 268.805C885.968 269.765 885.638 270.59 884.978 271.28C884.318 271.97 883.463 272.315 882.413 272.315Z" fill="white"/>
</svg>
