<svg width="59" height="48" viewBox="0 0 59 48" fill="none" xmlns="http://www.w3.org/2000/svg">
<path fill-rule="evenodd" clip-rule="evenodd" d="M58.2058 0.954476C58.8053 1.43496 59.0976 2.19799 58.9708 2.95174L51.8401 45.3576C51.72 46.0717 51.2406 46.6758 50.5685 46.9596C49.8965 47.2434 49.1249 47.1677 48.522 46.7589L32.1635 35.6653L24.1523 43.6747C23.542 44.2849 22.6204 44.4697 21.8188 44.1426C21.0171 43.8155 20.4939 43.0412 20.4939 42.1819V28.472L2.36449 25.9051C1.40374 25.769 0.655751 25.009 0.54243 24.0537C0.429108 23.0983 0.978846 22.1871 1.88157 21.8339L56.0753 0.630968C56.7924 0.3504 57.6064 0.473993 58.2058 0.954476ZM24.7723 30.6529L28.5738 33.2309L24.7723 37.0315V30.6529ZM33.1386 31.1884C33.1169 31.173 33.095 31.1582 33.0728 31.1438L26.377 26.603L53.9063 7.27569L48.171 41.3827L33.1386 31.1884ZM41.1674 11.0226L10.9647 22.8392L22.092 24.4147L41.1674 11.0226Z" fill="#E52A30"/>
</svg>
