<svg width="59" height="38" viewBox="0 0 59 38" fill="none" xmlns="http://www.w3.org/2000/svg">
<mask id="path-1-inside-1_42_359" fill="white">
<path d="M31.8473 37.1788C11.8696 37.1788 0.474791 23.3823 0 0.424805H10.0071C10.3358 17.275 17.7132 24.4124 23.5567 25.884V0.424805H32.9799V14.9572C38.7504 14.3317 44.8124 7.70938 46.8576 0.424805H56.2806C54.7101 9.40176 48.1361 16.0241 43.4612 18.7466C48.1361 20.9541 55.6235 26.7302 58.4723 37.1788H48.0996C45.8717 30.1886 40.3209 24.7803 32.9799 24.0445V37.1788H31.8473Z"/>
</mask>
<path d="M31.8473 37.1788C11.8696 37.1788 0.474791 23.3823 0 0.424805H10.0071C10.3358 17.275 17.7132 24.4124 23.5567 25.884V0.424805H32.9799V14.9572C38.7504 14.3317 44.8124 7.70938 46.8576 0.424805H56.2806C54.7101 9.40176 48.1361 16.0241 43.4612 18.7466C48.1361 20.9541 55.6235 26.7302 58.4723 37.1788H48.0996C45.8717 30.1886 40.3209 24.7803 32.9799 24.0445V37.1788H31.8473Z" fill="#E52A30"/>
<path d="M0 0.424805V-0.575195H-1.0209L-0.999786 0.445482L0 0.424805ZM10.0071 0.424805L11.0069 0.405301L10.9878 -0.575195H10.0071V0.424805ZM23.5567 25.884L23.3125 26.8538L24.5567 27.1671V25.884H23.5567ZM23.5567 0.424805V-0.575195H22.5567V0.424805H23.5567ZM32.9799 0.424805H33.9799V-0.575195H32.9799V0.424805ZM32.9799 14.9572H31.9799V16.0714L33.0876 15.9513L32.9799 14.9572ZM46.8576 0.424805V-0.575195H46.0997L45.8949 0.154492L46.8576 0.424805ZM56.2806 0.424805L57.2656 0.597131L57.4707 -0.575195H56.2806V0.424805ZM43.4612 18.7466L42.958 17.8825L41.3153 18.8392L43.0343 19.6509L43.4612 18.7466ZM58.4723 37.1788V38.1788H59.7814L59.4371 36.9158L58.4723 37.1788ZM48.0996 37.1788L47.1468 37.4825L47.3687 38.1788H48.0996V37.1788ZM32.9799 24.0445L33.0796 23.0495L31.9799 22.9393V24.0445H32.9799ZM32.9799 37.1788V38.1788H33.9799V37.1788H32.9799ZM31.8473 36.1788C22.106 36.1788 14.558 32.8257 9.36996 26.7608C4.16128 20.6718 1.23411 11.7345 0.999786 0.404128L-0.999786 0.445482C-0.759323 12.0726 2.24831 21.5123 7.85015 28.0609C13.4726 34.6337 21.6109 38.1788 31.8473 38.1788V36.1788ZM0 1.4248H10.0071V-0.575195H0V1.4248ZM9.00732 0.444308C9.34129 17.5649 16.8784 25.2334 23.3125 26.8538L23.801 24.9143C18.548 23.5914 11.3304 16.9851 11.0069 0.405301L9.00732 0.444308ZM24.5567 25.884V0.424805H22.5567V25.884H24.5567ZM23.5567 1.4248H32.9799V-0.575195H23.5567V1.4248ZM31.9799 0.424805V14.9572H33.9799V0.424805H31.9799ZM33.0876 15.9513C36.2947 15.6038 39.4578 13.6172 42.0434 10.8741C44.6424 8.11678 46.7525 4.49882 47.8204 0.695117L45.8949 0.154492C44.9176 3.63536 42.9741 6.97087 40.588 9.50226C38.1887 12.0478 35.4356 13.6851 32.8721 13.963L33.0876 15.9513ZM46.8576 1.4248H56.2806V-0.575195H46.8576V1.4248ZM55.2956 0.252478C53.7884 8.86734 47.4486 15.2672 42.958 17.8825L43.9645 19.6108C48.8236 16.781 55.6318 9.93618 57.2656 0.597131L55.2956 0.252478ZM43.0343 19.6509C47.516 21.7671 54.7542 27.3434 57.5075 37.4419L59.4371 36.9158C56.4929 26.117 48.7562 20.141 43.8882 17.8424L43.0343 19.6509ZM58.4723 36.1788H48.0996V38.1788H58.4723V36.1788ZM49.0524 36.8752C46.7286 29.584 40.8938 23.8327 33.0796 23.0495L32.8801 25.0395C39.7479 25.7279 45.0148 30.7931 47.1468 37.4825L49.0524 36.8752ZM31.9799 24.0445V37.1788H33.9799V24.0445H31.9799ZM32.9799 36.1788H31.8473V38.1788H32.9799V36.1788Z" fill="black" mask="url(#path-1-inside-1_42_359)"/>
</svg>
